# xmcd
#
# Track frame offsets:
#	150
#	11492
#	19364
#	27884
#	36773
#	49308
#	63526
#	72794
#	83433
#	100886
#	110886
#	120940
#	131428
#
# Disc length: 1956 seconds
#
# Revision: 0
# Processed by: cddbd v1.5.1PL2 Copyright (c) Steve Scherf et al.
# Submitted via: dBpowerAMP V4.0
#
DISCID=a607a20d
DTITLE=Unknown - Blue Grass Gospel CD2
DYEAR=1900
DGENRE=Bluegrass
TTITLE0=Nothing but the Blood
TTITLE1=Standing on the Promises
TTITLE2=Peace Like a River
TTITLE3=At the Cross
TTITLE4=Tis So Sweet
TTITLE5=Rock of Ages
TTITLE6=Leaning On the Everlasting Arms
TTITLE7=Savior Like a Shepard
TTITLE8=It is Well With My Soul
TTITLE9=The Solid Rock
TTITLE10=Lily of the Valley
TTITLE11=Blessed Assurance
TTITLE12=The Narrow Way
EXTD=
EXTT0=
EXTT1=
EXTT2=
EXTT3=
EXTT4=
EXTT5=
EXTT6=
EXTT7=
EXTT8=
EXTT9=
EXTT10=
EXTT11=
EXTT12=
PLAYORDER=
